<svg width="28" height="28" viewBox="0 0 28 28" fill="none" xmlns="http://www.w3.org/2000/svg">
<path d="M14.0444 3.86206C11.2793 3.86206 10.9323 3.87415 9.84624 3.92358C8.76234 3.97321 8.02248 4.14482 7.37511 4.39661C6.70546 4.65667 6.13742 5.00455 5.57149 5.5707C5.00515 6.13664 4.65728 6.7047 4.39638 7.37415C4.14396 8.02176 3.97215 8.76185 3.92336 9.84536C3.87479 10.9314 3.86206 11.2787 3.86206 14.0439C3.86206 16.8091 3.87436 17.1551 3.92357 18.2411C3.97342 19.3251 4.14502 20.0649 4.39659 20.7123C4.65685 21.382 5.00472 21.9501 5.57086 22.516C6.13657 23.0824 6.70461 23.4311 7.37383 23.6912C8.02163 23.9429 8.7617 24.1145 9.84539 24.1642C10.9314 24.2136 11.2782 24.2257 14.0431 24.2257C16.8085 24.2257 17.1544 24.2136 18.2405 24.1642C19.3244 24.1145 20.0651 23.9429 20.7129 23.6912C21.3823 23.4311 21.9495 23.0824 22.5152 22.516C23.0816 21.9501 23.4294 21.382 23.6903 20.7125C23.9406 20.0649 24.1124 19.3249 24.1634 18.2413C24.2121 17.1553 24.2249 16.8091 24.2249 14.0439C24.2249 11.2787 24.2121 10.9316 24.1634 9.84558C24.1124 8.76164 23.9406 8.02176 23.6903 7.37436C23.4294 6.7047 23.0816 6.13664 22.5152 5.5707C21.9489 5.00433 21.3825 4.65645 20.7122 4.39661C20.0632 4.14482 19.3229 3.97321 18.239 3.92358C17.153 3.87415 16.8072 3.86206 14.0412 3.86206H14.0444ZM13.1311 5.69691C13.4021 5.69649 13.7046 5.69691 14.0444 5.69691C16.7629 5.69691 17.0851 5.70667 18.1586 5.75545C19.1513 5.80085 19.6901 5.96673 20.049 6.10609C20.5241 6.29064 20.8629 6.51124 21.219 6.86761C21.5753 7.22397 21.7959 7.56336 21.9809 8.03852C22.1203 8.397 22.2864 8.93579 22.3315 9.92852C22.3803 11.0018 22.3909 11.3243 22.3909 14.0415C22.3909 16.7588 22.3803 17.0812 22.3315 18.1546C22.2861 19.1473 22.1203 19.6861 21.9809 20.0446C21.7964 20.5197 21.5753 20.8581 21.219 21.2142C20.8626 21.5706 20.5243 21.7912 20.049 21.9757C19.6905 22.1157 19.1513 22.2812 18.1586 22.3266C17.0853 22.3754 16.7629 22.386 14.0444 22.386C11.3257 22.386 11.0035 22.3754 9.93024 22.3266C8.93754 22.2808 8.39877 22.1149 8.03966 21.9755C7.56452 21.791 7.22514 21.5704 6.86879 21.214C6.51243 20.8576 6.29184 20.5191 6.10687 20.0437C5.96751 19.6852 5.80143 19.1465 5.75625 18.1537C5.70746 17.0804 5.6977 16.758 5.6977 14.039C5.6977 11.32 5.70746 10.9993 5.75625 9.92597C5.80164 8.93324 5.96751 8.39445 6.10687 8.03555C6.29141 7.56039 6.51243 7.221 6.86879 6.86464C7.22514 6.50827 7.56452 6.28767 8.03966 6.1027C8.39856 5.9627 8.93754 5.79724 9.93024 5.75164C10.8695 5.70921 11.2335 5.69649 13.1311 5.69436V5.69691ZM19.4792 7.38752C18.8047 7.38752 18.2574 7.93415 18.2574 8.60891C18.2574 9.28345 18.8047 9.83073 19.4792 9.83073C20.1537 9.83073 20.701 9.28345 20.701 8.60891C20.701 7.93436 20.1537 7.38709 19.4792 7.38709V7.38752ZM14.0444 8.81509C11.1569 8.81509 8.81579 11.1563 8.81579 14.0439C8.81579 16.9315 11.1569 19.2716 14.0444 19.2716C16.9319 19.2716 19.2722 16.9315 19.2722 14.0439C19.2722 11.1563 16.9317 8.81509 14.0442 8.81509H14.0444ZM14.0444 10.6499C15.9187 10.6499 17.4383 12.1694 17.4383 14.0439C17.4383 15.9182 15.9187 17.4378 14.0444 17.4378C12.17 17.4378 10.6506 15.9182 10.6506 14.0439C10.6506 12.1694 12.17 10.6499 14.0444 10.6499Z" fill="white"/>
</svg>
