<svg width="24" height="24" viewBox="0 0 24 24" fill="none" xmlns="http://www.w3.org/2000/svg">
<g clip-path="url(#clip0)">
<path d="M22.8223 22.4507C22.8738 22.4513 22.9249 22.4395 22.9723 22.416C23.0197 22.3925 23.0626 22.3578 23.0981 22.3141C23.1336 22.2704 23.1611 22.2186 23.1789 22.1619C23.1966 22.1052 23.2043 22.0448 23.2013 21.9845C23.2013 21.6538 23.0312 21.4958 22.6823 21.4958H22.1185V23.227H22.3306V22.4724H22.5911L22.5971 22.4816L23.0015 23.227H23.2283L22.7932 22.4555L22.8223 22.4507ZM22.5771 22.2773H22.3312V21.692H22.6428C22.8038 21.692 22.9874 21.7229 22.9874 21.9702C22.9874 22.2545 22.8016 22.2773 22.5758 22.2773" fill="white"/>
<path d="M20.4482 20.4491H16.8921V14.88C16.8921 13.552 16.8684 11.8425 15.0426 11.8425C13.1905 11.8425 12.9071 13.2894 12.9071 14.7833V20.4488H9.35105V8.99641H12.7649V10.5615H12.8127C13.1543 9.97733 13.648 9.49677 14.2411 9.171C14.8343 8.84523 15.5047 8.68644 16.1809 8.71154C19.7851 8.71154 20.4497 11.0823 20.4497 14.1666L20.4482 20.4491ZM5.33865 7.43095C4.9305 7.43102 4.53149 7.31006 4.19209 7.08336C3.85269 6.85666 3.58815 6.5344 3.43189 6.15734C3.27564 5.78028 3.23468 5.36535 3.31424 4.96502C3.39379 4.56469 3.59027 4.19694 3.87882 3.90827C4.16737 3.61961 4.53504 3.423 4.93533 3.3433C5.33562 3.2636 5.75054 3.30439 6.12765 3.46052C6.50476 3.61665 6.82709 3.88109 7.05391 4.22043C7.28072 4.55976 7.40183 4.95873 7.4019 5.36689C7.40195 5.6379 7.34861 5.90626 7.24495 6.15666C7.14129 6.40705 6.98934 6.63458 6.79775 6.82625C6.60616 7.01791 6.37868 7.16996 6.12833 7.27372C5.87798 7.37747 5.60965 7.4309 5.33865 7.43095ZM7.11667 20.4491H3.55692V8.99641H7.11667V20.4491ZM22.221 0.00114688H1.77001C1.30583 -0.00409157 0.858541 0.175175 0.526463 0.499554C0.194386 0.823933 0.0046885 1.26688 -0.000976562 1.73108V22.2676C0.00449461 22.732 0.19408 23.1753 0.526147 23.5C0.858213 23.8247 1.3056 24.0043 1.77001 23.9994H22.221C22.6863 24.0052 23.135 23.8261 23.4684 23.5014C23.8017 23.1767 23.9926 22.7329 23.999 22.2676V1.72959C23.9924 1.26448 23.8014 0.821027 23.468 0.496656C23.1346 0.172285 22.6861 -0.00646971 22.221 -0.000335459" fill="white"/>
<path d="M22.6028 20.7249C22.237 20.729 21.8874 20.9029 21.6306 21.2085C21.3737 21.5141 21.2306 21.9266 21.2323 22.3557C21.2341 22.7848 21.3807 23.1957 21.64 23.4984C21.8993 23.8011 22.2502 23.971 22.6161 23.971C22.982 23.971 23.3329 23.8011 23.5922 23.4984C23.8515 23.1957 23.9981 22.7848 23.9999 22.3557C24.0016 21.9266 23.8585 21.5141 23.6016 21.2085C23.3448 20.9029 22.9952 20.729 22.6294 20.7249H22.6028ZM22.6028 23.7852C22.3628 23.7899 22.1271 23.711 21.9254 23.5585C21.7236 23.4061 21.565 23.1868 21.4694 22.9286C21.3739 22.6704 21.3458 22.3847 21.3887 22.1077C21.4316 21.8308 21.5436 21.575 21.7104 21.3726C21.8773 21.1703 22.0915 21.0305 22.3261 20.971C22.5607 20.9115 22.805 20.9349 23.0282 21.0383C23.2515 21.1417 23.4435 21.3204 23.5801 21.5518C23.7168 21.7832 23.7918 22.057 23.7958 22.3384C23.7958 22.3465 23.7958 22.3542 23.7958 22.3623C23.8025 22.7315 23.684 23.0888 23.4662 23.3555C23.2484 23.6221 22.9492 23.7765 22.6344 23.7845H22.6031" fill="white"/>
</g>
<defs>
<clipPath id="clip0">
<rect width="24" height="24" fill="white"/>
</clipPath>
</defs>
</svg>
