<svg width="21" height="17" viewBox="0 0 21 17" fill="none" xmlns="http://www.w3.org/2000/svg">
<path d="M6.63038 16.9299C14.5026 16.9299 18.8076 10.4437 18.8076 4.81916C18.8076 4.63493 18.8038 4.45153 18.7955 4.26897C19.6312 3.66815 20.3575 2.91838 20.9304 2.06487C20.1635 2.40386 19.3383 2.63207 18.4726 2.73497C19.3562 2.20801 20.0346 1.37443 20.3546 0.380703C19.5277 0.868244 18.612 1.22259 17.6369 1.4139C16.8559 0.586563 15.7441 0.0690918 14.5129 0.0690918C12.1494 0.0690918 10.2328 1.9753 10.2328 4.32498C10.2328 4.65899 10.2704 4.98388 10.3438 5.29552C6.78675 5.11751 3.63262 3.42377 1.5217 0.848325C1.15414 1.47735 0.942202 2.20804 0.942202 2.98769C0.942202 4.46442 1.69778 5.76809 2.84676 6.53075C2.14459 6.50918 1.48498 6.31747 0.908462 5.99839C0.907832 6.01625 0.90783 6.03367 0.90783 6.05275C0.90783 8.11414 2.38308 9.83523 4.3414 10.2252C3.98177 10.3227 3.60339 10.375 3.21286 10.375C2.93751 10.375 2.66924 10.3481 2.40849 10.2983C2.95336 11.9895 4.53334 13.2202 6.40654 13.2546C4.94172 14.3965 3.09645 15.0766 1.09095 15.0766C0.745922 15.0766 0.405067 15.057 0.0700684 15.0176C1.9642 16.2251 4.2133 16.9296 6.63061 16.9296" fill="white"/>
</svg>
