<svg width="36" height="11" viewBox="0 0 36 11" fill="none" xmlns="http://www.w3.org/2000/svg">
<path fill-rule="evenodd" clip-rule="evenodd" d="M1.07662 0.7871C1.23258 0.476593 1.50531 0.240603 1.835 0.13087C2.16469 0.0211366 2.52444 0.0466167 2.83537 0.201724L18 7.7801L33.162 0.1991C33.3162 0.1203 33.4846 0.0728123 33.6573 0.0593752C33.83 0.0459381 34.0036 0.066817 34.1682 0.120808C34.3328 0.1748 34.4851 0.260835 34.6162 0.373956C34.7474 0.487076 34.8549 0.625043 34.9325 0.779902C35.0101 0.934762 35.0563 1.10345 35.0684 1.27624C35.0805 1.44903 35.0583 1.62251 35.003 1.78668C34.9477 1.95084 34.8605 2.10244 34.7464 2.23274C34.6322 2.36303 34.4935 2.46945 34.338 2.54585L18.588 10.4208C18.4055 10.5123 18.2041 10.5599 18 10.5599C17.7958 10.5599 17.5945 10.5123 17.412 10.4208L1.662 2.54585C1.35149 2.38989 1.1155 2.11717 1.00577 1.78747C0.896034 1.45778 0.921515 1.09803 1.07662 0.7871Z" fill="white"/>
</svg>
